# xmcd
#
# Track frame offsets: 
#        150
#        27622
#        48142
#        65701
#        92283
#        115128
#        131197
#        152006
#        172220
#        195731
#
# Disc length: 2946 seconds
#
# Revision: 0
# Processed by: cddbd v1.5.2PL0 Copyright (c) Steve Scherf et al.
# Submitted via: ExactAudioCopy v1.0b3
#
DISCID=8a0b800a
DTITLE=Various Artist - Mua Xuan cua Me
DYEAR=1995
DGENRE=
TTITLE0=hop ca - Ly ruou mung
TTITLE1=Tuan Vu - Mua hoa anh dao
TTITLE2=Quang Binh, Trang Thanh Lan - Thu Xuan
TTITLE3=Phuong Hong Que - Mua Xuan cua Me
TTITLE4=Duy Khanh - Canh thu mua Xuan
TTITLE5=Quang Binh, Trang Thanh Lan - Tet nay co em
TTITLE6=Phuong Vu - Don vang chieu Xuan
TTITLE7=Phuong Hong Que - Thu Xuan cho em
TTITLE8=Tuan Vu - Cam on
TTITLE9=Lan Thanh - Xuan khuc
EXTD=
EXTT0=
EXTT1=
EXTT2=
EXTT3=
EXTT4=
EXTT5=
EXTT6=
EXTT7=
EXTT8=
EXTT9=
PLAYORDER=
